<svg id="Layer_1" data-name="Layer 1" xmlns="http://www.w3.org/2000/svg" viewBox="0 0 360 360"><defs><style>.cls-1{fill:#231f20;}</style></defs><title>Campania_Icon-Final-Black</title><path class="cls-1" d="M180.85,252.34q-27.27,0-46-8.24t-28.18-24.42q-9.47-16.19-9.47-39.78,0-34.59,21.58-53.42t61.65-18.82q23.4,0,41.1,6.11T249.12,132Q259,144.09,259,162H237.21q0-12.62-7.12-20.45t-20-11.4a113.7,113.7,0,0,0-30-3.56q-17.7,0-31.33,5.6a46,46,0,0,0-21.27,16.89q-7.62,11.3-7.63,28.18v5.09q0,17.7,7.73,29A45.92,45.92,0,0,0,149,228.12q13.74,5.5,31.85,5.5,17.28,0,30.11-3.77t19.84-11.6q7-7.83,7-19.83h21.37q0,17.7-10,29.7t-27.57,18.11q-17.61,6.12-40.8,6.11"/><path class="cls-1" d="M351.2,62.45a61.93,61.93,0,0,1-59-54.11l-.6-4.73H68.42l-.6,4.73a61.93,61.93,0,0,1-59,54.11l-5.2.22V297.33l5.2.22a61.93,61.93,0,0,1,59,54.11l.6,4.73H291.58l.6-4.73a61.93,61.93,0,0,1,59-54.11l5.2-.22V62.67Zm-5.64,173.21v51.46a72.71,72.71,0,0,0-63.37,58.43H77.81a72.71,72.71,0,0,0-63.37-58.43V72.88A72.71,72.71,0,0,0,77.81,14.45H282.19a72.71,72.71,0,0,0,63.37,58.43V235.66Z"/><path class="cls-1" d="M260.93,46l-1.11-3.78H100.16L99.05,46C91.87,70.35,72.2,88.36,46.42,94.14l-4.11.93V264.93l4.11.93C72.2,271.64,91.87,289.65,99.05,314l1.11,3.78H259.82l1.11-3.78c7.18-24.38,26.85-42.39,52.63-48.17l4.1-.93V95.07l-4.1-.93C287.78,88.36,268.11,70.35,260.93,46Zm46.21,188v22.64c-26.23,7.21-46.42,25.78-55.1,50.67H107.93c-8.67-24.89-28.87-43.46-55.09-50.67V103.39c26.22-7.21,46.42-25.78,55.09-50.67H252c8.68,24.89,28.87,43.46,55.1,50.67V234Z"/></svg>